<svg width="145" height="145" viewBox="0 0 145 145" fill="none" xmlns="http://www.w3.org/2000/svg">
<path fill-rule="evenodd" clip-rule="evenodd" d="M144.343 72.8643C144.343 33.1029 112.104 0.864258 72.3425 0.864258C32.5811 0.864258 0.342529 33.1029 0.342529 72.8643C0.342529 108.798 26.6682 138.586 61.0936 143.994V93.6818H42.8074V72.8643H61.0936V56.998C61.0936 38.9548 71.8464 28.9816 88.2896 28.9816C96.1668 28.9816 104.409 30.3889 104.409 30.3889V48.1082H95.3264C86.3862 48.1082 83.5914 53.6568 83.5914 59.3571V72.8637H103.558L100.369 93.6812H83.5908V143.993C118.017 138.596 144.342 108.808 144.342 72.8637L144.343 72.8643Z" fill="#1977F3"/>
<path fill-rule="evenodd" clip-rule="evenodd" d="M100.369 93.6811L103.559 72.8636H83.5919V59.357C83.5919 53.6667 86.3762 48.1081 95.3269 48.1081H104.41V30.3888C104.41 30.3888 96.1679 28.9814 88.2901 28.9814C71.847 28.9814 61.0942 38.9448 61.0942 56.9979V72.8642H42.8079V93.6817H61.0942V143.994C64.7593 144.57 68.5157 144.864 72.3431 144.864C76.1704 144.864 79.9268 144.56 83.5919 143.994V93.6817H100.37L100.369 93.6811Z" fill="#FEFEFE"/>
</svg>
