<svg width="144" height="144" viewBox="0 0 144 144" fill="none" xmlns="http://www.w3.org/2000/svg">
<path d="M72.0632 35.3132C70.7969 35.3132 69.5444 35.3778 68.3104 35.5042C67.0764 35.6306 65.8594 35.8179 64.6632 36.0637C63.467 36.3096 62.292 36.6141 61.1406 36.9735L57.7609 38.2144L54.5432 39.7681L51.5068 41.6157L48.6697 43.7378L46.0517 46.1159L43.6713 48.7316L41.5469 51.5655L39.697 54.5991L38.1424 57.8131C37.6751 58.9124 37.2594 60.0395 36.8996 61.19C36.5398 62.3405 36.2353 63.515 35.9889 64.7099C35.7426 65.9047 35.5553 67.1202 35.4284 68.3534C35.3016 69.5865 35.2379 70.8376 35.2379 72.1025C35.2379 73.3674 35.3025 74.6185 35.4284 75.8516C35.5537 77.075 35.7407 78.2912 35.9889 79.4956C36.2353 80.695 36.5398 81.8649 36.8996 83.0155C37.2594 84.166 37.6746 85.2926 38.1424 86.3923L39.697 89.6064L41.5469 92.6395L43.6713 95.4739L46.0517 98.0896L48.6697 100.468L51.5068 102.59L54.5432 104.437L57.7609 105.991L61.1406 107.232L64.6632 108.142C65.8687 108.39 67.086 108.577 68.3104 108.702C69.5573 108.829 70.8099 108.893 72.0632 108.892C73.3295 108.892 74.582 108.828 75.8156 108.702C77.04 108.577 78.2573 108.39 79.4628 108.142L82.9859 107.232L86.3655 105.991L89.5828 104.437L92.6196 102.59L95.4567 100.468L98.0752 98.0896L100.456 95.4739L102.58 92.6395L104.43 89.6064L105.985 86.3923L107.227 83.0155C107.587 81.8649 107.892 80.6904 108.138 79.4956L108.698 75.8512C108.825 74.6181 108.889 73.367 108.889 72.102C108.889 70.8371 108.825 69.586 108.698 68.3529C108.573 67.1297 108.386 65.9137 108.138 64.7094C107.892 63.51 107.587 62.3405 107.227 61.1895L105.985 57.8127L104.43 54.5986L102.58 51.565L100.456 48.7311L98.0752 46.1154L95.4567 43.7373L92.6196 41.6153L89.5828 39.7677L86.3655 38.214L82.9859 36.973L79.4628 36.0633L75.8156 35.5037C74.5689 35.3764 73.3164 35.3131 72.0632 35.3132ZM72.0632 48.0115C72.9005 48.0115 73.7267 48.053 74.5405 48.1351L76.9394 48.4982L79.2566 49.0886L81.4755 49.8946L83.5851 50.9049L85.5688 52.1066L87.4233 53.4892L89.133 55.0401L90.6853 56.7479L92.0693 58.6006L93.2724 60.587L94.2827 62.6953C94.5862 63.4168 94.8556 64.1563 95.09 64.9124C95.3243 65.6685 95.5213 66.4412 95.6805 67.2282C95.8396 68.0152 95.9573 68.8161 96.0435 69.6294L96.1672 72.1048C96.1672 72.9412 96.1257 73.7669 96.0435 74.5807C95.9614 75.3945 95.8406 76.1953 95.6805 76.9819C95.5204 77.7684 95.323 78.5411 95.09 79.2977L94.2827 81.5148L93.2724 83.623L92.0693 85.609L90.6853 87.4621L89.133 89.1699L87.4233 90.7209L85.5688 92.1035L83.5851 93.3052L81.4755 94.3155L79.2566 95.1214L76.9394 95.7119L74.5405 96.0745C73.7172 96.157 72.8902 96.1983 72.0628 96.1982C71.2351 96.1983 70.408 96.157 69.5846 96.0745L67.1857 95.7119C66.3982 95.5523 65.625 95.3549 64.868 95.1214L62.6491 94.3155L60.5395 93.3052L58.5558 92.1035L56.7013 90.7209L54.9916 89.1699L53.4393 87.4621L52.0553 85.609L50.8522 83.623L49.8419 81.5148L49.0346 79.2977L48.4441 76.9819L48.0811 74.5807C47.9985 73.758 47.9572 72.9317 47.9574 72.1048C47.9572 71.2781 47.9985 70.4519 48.0811 69.6294C48.1627 68.8161 48.284 68.0147 48.4441 67.2282C48.6026 66.4471 48.7998 65.6743 49.0351 64.9128L49.8424 62.6957L50.8527 60.5875L52.0558 58.6011L53.4397 56.7484L54.9921 55.0406L56.7017 53.4896L58.5562 52.1071L60.5399 50.9053L62.6495 49.895C63.3756 49.5901 64.1164 49.3211 64.8689 49.0891L67.1866 48.4986C67.9741 48.339 68.7759 48.2172 69.5855 48.1356C70.409 48.0531 71.2356 48.0114 72.0632 48.0115Z" fill="url(#paint0_radial_1075_114)"/>
<path d="M110.382 24.8477C110.09 24.8477 109.798 24.8625 109.507 24.892C109.216 24.9214 108.927 24.9654 108.64 25.0239C108.354 25.0824 108.07 25.1552 107.791 25.2421C107.511 25.3291 107.237 25.4301 106.967 25.5447C106.698 25.6595 106.435 25.7878 106.178 25.929C105.921 26.07 105.672 26.2238 105.431 26.3899C105.189 26.5561 104.956 26.7344 104.733 26.9241C104.509 27.1136 104.295 27.3142 104.091 27.5252C103.888 27.7363 103.695 27.9576 103.513 28.1881C103.331 28.4187 103.161 28.6582 103.003 28.9059C102.845 29.1534 102.7 29.4087 102.567 29.6708C102.435 29.9331 102.315 30.2019 102.209 30.4763C102.103 30.7505 102.011 31.03 101.932 31.3135C101.854 31.5971 101.79 31.8844 101.741 32.1744C101.691 32.4643 101.656 32.7565 101.635 33.05C101.62 33.2578 101.613 33.4662 101.613 33.6746C101.613 33.969 101.627 34.2632 101.657 34.5562C101.686 34.849 101.73 35.1401 101.788 35.4285C101.846 35.7169 101.918 36.0022 102.004 36.2833C102.091 36.5645 102.191 36.8412 102.305 37.1123C102.419 37.3835 102.546 37.6488 102.687 37.9072C102.827 38.1655 102.98 38.4166 103.145 38.6596C103.31 38.9024 103.487 39.1367 103.675 39.3617C103.864 39.5869 104.063 39.8025 104.273 40.0076C104.483 40.2126 104.702 40.4069 104.932 40.5898C105.161 40.7728 105.399 40.9441 105.645 41.1032C105.891 41.2623 106.145 41.4089 106.405 41.5424C106.666 41.676 106.933 41.7964 107.205 41.9031C107.478 42.0098 107.755 42.1026 108.037 42.1813C108.319 42.2599 108.604 42.3243 108.892 42.3741C109.18 42.4242 109.471 42.4598 109.762 42.4807C109.969 42.4955 110.176 42.5028 110.383 42.5029C110.675 42.5029 110.968 42.4883 111.259 42.459C111.549 42.4296 111.839 42.3856 112.125 42.3271C112.412 42.2687 112.695 42.1958 112.975 42.1089C113.254 42.0219 113.529 41.9209 113.798 41.8063C114.067 41.6916 114.331 41.5635 114.587 41.4224C114.844 41.2813 115.093 41.1273 115.335 40.9611C115.576 40.795 115.809 40.6169 116.033 40.4274C116.256 40.2377 116.47 40.037 116.674 39.8258C116.878 39.6147 117.071 39.3934 117.252 39.1629C117.434 38.9323 117.604 38.6928 117.762 38.4451C117.92 38.1975 118.066 37.942 118.198 37.6798C118.331 37.4174 118.451 37.1486 118.557 36.8743C118.663 36.6 118.755 36.3206 118.833 36.037C118.911 35.7535 118.975 35.4662 119.025 35.1762C119.075 34.8863 119.11 34.594 119.13 34.3006C119.145 34.0927 119.153 33.8844 119.153 33.676C119.153 33.3817 119.138 33.0876 119.109 32.7948C119.08 32.502 119.036 32.2109 118.978 31.9225C118.92 31.6341 118.847 31.3488 118.761 31.0677C118.674 30.7865 118.574 30.5098 118.46 30.2387C118.346 29.9675 118.219 29.7022 118.079 29.4438C117.939 29.1855 117.786 28.9344 117.621 28.6914C117.455 28.4484 117.278 28.214 117.09 27.9888C116.901 27.7637 116.702 27.5481 116.493 27.343C116.283 27.138 116.063 26.9437 115.834 26.7608C115.605 26.5779 115.367 26.4067 115.121 26.2478C114.875 26.0887 114.621 25.9421 114.36 25.8086C114.099 25.675 113.832 25.5546 113.56 25.4479C113.288 25.3412 113.01 25.2484 112.728 25.1697C112.447 25.0909 112.161 25.0264 111.873 24.9764C111.585 24.9265 111.295 24.891 111.003 24.8703C110.796 24.8555 110.589 24.8477 110.382 24.8477Z" fill="url(#paint1_radial_1075_114)"/>
<path d="M65.0801 0.130187C61.0749 0.123728 57.5006 0.140334 54.2898 0.185543L45.6816 0.416203C43.1314 0.526919 40.8783 0.671302 38.8559 0.858137C37.8447 0.951323 36.8907 1.05558 35.9865 1.17045C35.126 1.2789 34.268 1.40518 33.4128 1.5492C32.5985 1.6876 31.8258 1.83706 31.0849 1.99944C30.3441 2.16183 29.6364 2.33713 28.9536 2.52535C28.2862 2.7094 27.6239 2.91185 26.9677 3.13245C26.3246 3.34927 25.6972 3.57901 25.0776 3.82443C23.8385 4.31528 22.6299 4.86608 21.3852 5.48333C20.4275 5.95849 19.5427 6.43964 18.7022 6.94894C17.8617 7.45824 17.0654 7.99614 16.2858 8.58202C15.4829 9.18831 14.709 9.83211 13.9668 10.5113C13.1908 11.218 12.3983 11.9953 11.5748 12.864C10.5401 13.9495 9.64096 14.9616 8.84287 15.9548C8.44383 16.4512 8.07016 16.9421 7.71818 17.4357C7.37008 17.9221 7.03731 18.4194 6.72034 18.9266C6.40665 19.4295 6.10956 19.9416 5.82538 20.4684C5.53678 21.0043 5.26402 21.5486 5.00746 22.1005C4.48248 23.228 3.99256 24.4422 3.50356 25.7976C3.14079 26.7995 2.81594 27.8149 2.52971 28.8413C2.2377 29.8904 1.97798 30.9879 1.74639 32.1748C1.51481 33.3618 1.31275 34.6383 1.13514 36.0499C0.943752 37.5973 0.790855 39.1492 0.676592 40.7042C0.547423 42.4138 0.440397 44.2951 0.352746 46.389L0.145153 53.3513L0.0335129 61.8382L0.0012207 72.0965L0.0957912 87.0142L0.391036 98.3165L0.618466 102.731L0.90264 106.39C0.993735 107.376 1.10771 108.359 1.24448 109.34C1.36903 110.211 1.50282 110.973 1.64675 111.633C1.9388 112.974 2.28414 114.303 2.68195 115.617C3.06285 116.875 3.49844 118.115 3.98748 119.335C4.46818 120.53 4.99408 121.682 5.56612 122.791C6.13816 123.9 6.75632 124.966 7.42063 125.99C8.08493 127.013 8.79536 127.995 9.55377 128.935C10.3113 129.875 11.1171 130.774 11.9679 131.631C12.8199 132.489 13.7186 133.305 14.6657 134.081C15.6239 134.866 16.6201 135.604 17.6504 136.291C18.6067 136.93 19.5529 137.516 20.506 138.053C21.459 138.591 22.4204 139.078 23.4086 139.522C24.3967 139.965 25.4098 140.364 26.4681 140.723C27.5263 141.082 28.6289 141.401 29.7942 141.684C30.9595 141.968 32.193 142.216 33.4986 142.433C34.8041 142.65 36.1996 142.836 37.6906 142.996C39.1816 143.156 40.7722 143.288 42.4814 143.399C44.1906 143.51 46.0174 143.598 47.9803 143.669C51.0126 143.779 55.6027 143.843 60.8959 143.868L78.0316 143.833L94.2581 143.606L100.428 143.432L104.447 143.226C105.31 143.155 106.154 143.072 106.969 142.975C107.784 142.878 108.587 142.767 109.37 142.64C110.152 142.514 110.917 142.373 111.668 142.216C112.411 142.061 113.15 141.888 113.884 141.698C114.611 141.513 115.328 141.303 116.038 141.08C116.747 140.858 117.45 140.617 118.148 140.358C118.85 140.098 119.545 139.821 120.234 139.528C120.927 139.232 121.619 138.917 122.314 138.582C123.381 138.068 124.24 137.639 124.994 137.221C125.704 136.832 126.387 136.397 127.04 135.918C127.684 135.444 128.324 134.904 129.062 134.224C129.8 133.544 130.637 132.725 131.672 131.689C132.583 130.779 133.35 129.988 134.012 129.269C134.674 128.55 135.232 127.903 135.721 127.279C136.187 126.687 136.621 126.071 137.022 125.433C137.413 124.81 137.773 124.163 138.139 123.446C138.691 122.367 139.182 121.367 139.621 120.402C140.048 119.473 140.438 118.526 140.79 117.566C141.137 116.613 141.438 115.644 141.691 114.662C141.951 113.652 142.175 112.585 142.369 111.415C142.562 110.245 142.726 108.972 142.868 107.55C143.01 106.129 143.131 104.557 143.237 102.792L143.519 96.8652L143.76 89.4947L143.933 81.2832L143.999 72.6972L143.845 55.8336L143.639 48.2804L143.358 41.7952L143.007 36.7391C142.88 35.3321 142.742 34.224 142.597 33.4748C142.435 32.647 142.255 31.8231 142.056 31.0035C141.862 30.2061 141.649 29.4135 141.417 28.6264C141.191 27.8595 140.945 27.0985 140.68 26.3442C140.418 25.5992 140.14 24.8698 139.849 24.1562C139.559 23.4425 139.244 22.7455 138.917 22.0632C138.589 21.3809 138.246 20.7152 137.886 20.0647C137.525 19.4143 137.15 18.78 136.757 18.1613C136.365 17.5427 135.956 16.9397 135.53 16.3529C135.107 15.768 134.665 15.1965 134.206 14.6391C133.749 14.0849 133.275 13.5452 132.784 13.0208C132.294 12.4972 131.787 11.9892 131.265 11.4976C130.742 11.0058 130.204 10.5297 129.649 10.0693C129.091 9.6074 128.52 9.16293 127.934 8.73656C127.343 8.30583 126.739 7.89323 126.122 7.49931C125.497 7.09978 124.861 6.71887 124.213 6.35707C123.555 5.98922 122.885 5.64031 122.207 5.3108C121.08 4.76321 120.038 4.27745 119.016 3.84658C118.01 3.41896 116.985 3.03917 115.944 2.7085C114.897 2.37865 113.807 2.09587 112.608 1.85183C111.408 1.60779 110.1 1.40435 108.62 1.23135C107.14 1.05836 105.487 0.918582 103.596 0.80233C101.706 0.686077 99.5794 0.594729 97.1515 0.520918L88.9003 0.336393L78.4574 0.213221L65.0847 0.131102L65.0801 0.130187ZM72.0252 12.8174L91.3098 12.9272L98.5848 13.0674C100.588 13.1237 102.117 13.1897 103.013 13.2658C104.181 13.3641 105.292 13.4872 106.356 13.6349C107.376 13.7758 108.392 13.951 109.4 14.1603C110.369 14.3633 111.293 14.5939 112.178 14.8541C113.062 15.1143 113.907 15.4059 114.717 15.7283C115.528 16.0508 116.303 16.4055 117.049 16.794C117.789 17.1795 118.508 17.6037 119.203 18.0649C119.895 18.5239 120.562 19.0185 121.21 19.5513C121.857 20.0841 122.485 20.6552 123.098 21.266C123.746 21.9105 124.343 22.5669 124.893 23.2441C125.441 23.9172 125.949 24.6226 126.412 25.3565C126.881 26.1009 127.303 26.8736 127.677 27.67C128.059 28.482 128.402 29.34 128.71 30.252C129.019 31.1641 129.293 32.1333 129.536 33.169C129.791 34.267 130.004 35.3742 130.176 36.4882C130.36 37.6692 130.518 38.9286 130.652 40.277C130.785 41.6254 130.896 43.0634 130.987 44.6019C131.06 45.8359 131.124 47.4644 131.178 49.3876L131.313 55.9453L131.416 72.0084L131.299 88.0563L131.158 94.5951L130.963 99.3508C130.829 101.578 130.687 103.45 130.517 105.079C130.432 105.894 130.339 106.648 130.237 107.355C130.141 108.023 130.027 108.688 129.896 109.35C129.776 109.954 129.637 110.554 129.478 111.15C129.327 111.717 129.156 112.28 128.967 112.837C128.776 113.396 128.569 113.949 128.345 114.495C128.108 115.073 127.858 115.644 127.595 116.21C127.361 116.715 127.115 117.207 126.855 117.685C126.598 118.159 126.324 118.623 126.036 119.078C125.75 119.529 125.45 119.967 125.136 120.391C124.824 120.813 124.497 121.224 124.155 121.623C123.815 122.021 123.46 122.405 123.091 122.777C122.722 123.148 122.339 123.506 121.942 123.852C121.546 124.198 121.134 124.531 120.708 124.851C120.283 125.171 119.842 125.478 119.387 125.772C118.931 126.067 118.462 126.349 117.977 126.619C117.492 126.888 116.992 127.145 116.478 127.39C115.954 127.639 115.424 127.872 114.886 128.089C114.331 128.313 113.77 128.521 113.203 128.714C112.049 129.107 110.833 129.452 109.552 129.749C108.218 130.058 106.871 130.31 105.515 130.505C104.993 130.581 103.795 130.653 102.079 130.719L95.5396 130.901L76.9992 131.142L57.5933 131.172L49.9723 131.091L45.0237 130.937L41.3747 130.68C40.2417 130.585 39.188 130.479 38.2008 130.358C37.2136 130.238 36.2942 130.104 35.4292 129.952C34.6095 129.811 33.7948 129.641 32.9865 129.445C32.2495 129.266 31.52 129.057 30.7999 128.819C30.1056 128.588 29.4417 128.334 28.7959 128.055C28.15 127.776 27.5226 127.47 26.9012 127.136C26.2798 126.802 25.6649 126.44 25.043 126.044C24.5739 125.746 24.1204 125.444 23.684 125.125C23.2476 124.805 22.8259 124.486 22.42 124.152C22.014 123.818 21.6242 123.474 21.2482 123.12C20.8747 122.767 20.5141 122.401 20.1669 122.023C19.8209 121.645 19.4901 121.257 19.1727 120.855C18.8541 120.451 18.5505 120.035 18.2626 119.609C17.9703 119.176 17.6938 118.733 17.4336 118.281C17.1706 117.824 16.9206 117.352 16.683 116.864C16.4414 116.368 16.216 115.864 16.0072 115.353C15.795 114.832 15.5938 114.295 15.4047 113.741C15.0264 112.631 14.6943 111.45 14.4055 110.191C14.1167 108.932 13.8703 107.594 13.6618 106.168C13.4533 104.743 13.2854 103.231 13.1516 101.625C13.0529 100.442 12.9745 98.5989 12.9145 96.2738L12.789 88.0047L12.8351 66.9247L13.1982 46.7816L13.475 39.6847L13.6318 37.3388C13.6863 36.7124 13.7426 36.2483 13.8002 35.9696C13.9903 35.053 14.1817 34.2 14.3796 33.4015C14.5645 32.6481 14.7702 31.9001 14.9964 31.1581C15.2114 30.4578 15.4379 29.8018 15.6801 29.1804C15.9136 28.5784 16.1739 27.9872 16.4602 27.4085C16.7397 26.8457 17.0401 26.3068 17.3662 25.7823C17.6924 25.2578 18.0444 24.749 18.4282 24.2429C18.812 23.7368 19.2253 23.2372 19.6751 22.7307C20.1249 22.2242 20.6107 21.7126 21.1375 21.1853C21.7515 20.5678 22.3908 19.976 23.0538 19.4115C23.6799 18.8789 24.3327 18.3786 25.0098 17.9127C25.6755 17.4513 26.3583 17.0408 27.0692 16.6634C27.7801 16.2861 28.5191 15.9451 29.2964 15.6384C30.0737 15.3316 30.8903 15.0571 31.7552 14.808C32.664 14.5531 33.5828 14.3356 34.5093 14.1561C35.4836 13.9652 36.5184 13.7986 37.6232 13.6533C38.7281 13.508 39.9035 13.3825 41.1602 13.2736C42.0367 13.198 43.547 13.1306 45.5358 13.0739L52.7739 12.9309L72.0285 12.8132L72.0252 12.8174Z" fill="url(#paint2_radial_1075_114)"/>
<defs>
<radialGradient id="paint0_radial_1075_114" cx="0" cy="0" r="1" gradientUnits="userSpaceOnUse" gradientTransform="translate(22.9423 154.346) rotate(-9.53101) scale(304.338 184.731)">
<stop stop-color="#FED576"/>
<stop offset="0.263" stop-color="#F47133"/>
<stop offset="0.609" stop-color="#BC3081"/>
<stop offset="1" stop-color="#4C63D2"/>
</radialGradient>
<radialGradient id="paint1_radial_1075_114" cx="0" cy="0" r="1" gradientUnits="userSpaceOnUse" gradientTransform="translate(22.9426 154.346) rotate(-9.53102) scale(304.338 184.731)">
<stop stop-color="#FED576"/>
<stop offset="0.263" stop-color="#F47133"/>
<stop offset="0.609" stop-color="#BC3081"/>
<stop offset="1" stop-color="#4C63D2"/>
</radialGradient>
<radialGradient id="paint2_radial_1075_114" cx="0" cy="0" r="1" gradientUnits="userSpaceOnUse" gradientTransform="translate(22.9426 154.346) rotate(-9.53101) scale(304.338 184.731)">
<stop stop-color="#FED576"/>
<stop offset="0.263" stop-color="#F47133"/>
<stop offset="0.609" stop-color="#BC3081"/>
<stop offset="1" stop-color="#4C63D2"/>
</radialGradient>
</defs>
</svg>
