<svg width="500" height="500" viewBox="110 10 280 360" fill="none" xmlns="http://www.w3.org/2000/svg">
<path d="M361 132.001L250.12 168L129 128.64L250.197 100L357.223 125.287H264.946C262.474 122.354 256.804 120.283 250.273 120.283C241.406 120.283 234.21 123.997 234.21 128.64C234.21 133.216 241.406 136.996 250.273 136.996C256.804 136.996 262.474 134.926 264.946 132.001H361Z" fill="#6a1b9a"/>
<path d="M352.841 184.697L346.999 164.941C347.369 164.65 347.747 164.359 348.125 163.991C348.425 163.623 348.724 163.264 348.944 162.827C349.172 162.391 349.322 161.946 349.392 161.441C349.471 161.005 349.471 160.491 349.392 160.055C349.322 159.619 349.243 159.105 349.023 158.669C348.873 158.233 348.574 157.796 348.275 157.428C347.967 157.06 347.598 156.701 347.219 156.478C346.85 156.188 346.401 155.974 345.944 155.828V133L342.275 134.027V155.751C341.827 155.897 341.378 156.119 341 156.41C340.621 156.701 340.252 156.992 339.953 157.36C339.654 157.719 339.425 158.156 339.196 158.592C339.047 159.037 338.897 159.473 338.827 159.978C338.748 160.491 338.748 160.928 338.827 161.364C338.897 161.8 339.047 162.314 339.275 162.75C339.504 163.187 339.724 163.555 340.102 163.914C340.401 164.282 340.771 164.573 341.228 164.864L335.378 184.629C335.299 184.988 335.229 185.279 335.15 185.647C335.079 186.015 335.079 186.306 335 186.665C335 187.033 335 187.324 335 187.692C335 188.051 335.079 188.342 335.15 188.71C335.229 189.078 335.299 189.369 335.378 189.728C335.449 190.019 335.598 190.387 335.748 190.678C335.897 190.969 336.056 191.26 336.205 191.551C336.355 191.842 336.575 192.133 336.803 192.432C337.023 192.723 337.252 192.937 337.472 193.228C337.701 193.45 338 193.741 338.229 193.964C338.528 194.178 338.748 194.4 339.047 194.545C339.346 194.759 339.654 194.905 339.953 195.05C340.252 195.196 340.621 195.341 340.921 195.487C341.228 195.641 341.598 195.709 341.897 195.786C342.275 195.855 342.574 195.932 342.953 195.932C343.322 196 343.621 196 344 196C344.369 196 344.677 196 345.046 195.932C345.425 195.855 345.724 195.855 346.093 195.786C346.472 195.709 346.771 195.641 347.07 195.487C347.369 195.341 347.747 195.273 348.046 195.05C348.345 194.905 348.644 194.759 348.944 194.545C349.243 194.323 349.542 194.178 349.77 193.964C350.07 193.741 350.298 193.519 350.518 193.228C350.747 193.014 350.967 192.723 351.196 192.432C351.424 192.133 351.574 191.842 351.794 191.551C351.943 191.26 352.093 190.969 352.243 190.678C352.392 190.387 352.542 190.019 352.621 189.728C352.691 189.437 352.841 189.078 352.841 188.71C352.92 188.342 352.92 188.051 352.99 187.692C352.99 187.324 352.99 187.033 352.99 186.665C352.99 186.306 352.92 186.015 352.92 185.647C353.069 185.356 352.99 185.065 352.841 184.697Z" fill="#6a1b9a"/>
<path d="M327 198.232L250.153 251.562L249.573 252L172 198.232L175.634 168.026L177.528 152L250.076 176.137L321.472 152.438L325.251 183.897L327 198.232Z" fill="#6a1b9a"/>
<path d="M236.828 90L240 89.2694L239.853 88.6918C235.866 67.7011 231.654 46.7783 227 26C229.955 47.1436 233.283 68.2023 236.75 89.2015C236.75 89.4139 236.75 89.7027 236.828 90Z" fill="#6a1b9a"/>
<path d="M262.181 90C262.181 89.8549 262.25 89.6416 262.25 89.4965C265.725 68.331 269.045 47.2423 272 26C267.346 46.9436 263.134 67.8957 259.078 88.9844C259.078 89.0612 259 89.2063 259 89.2746L262.181 90Z" fill="#6a1b9a"/>
<path d="M171 107.218C160.071 100.711 148.997 94.277 138 88C147.919 94.7464 157.905 101.419 167.892 108L171 107.218Z" fill="#6a1b9a"/>
<path d="M269 92.1961L272.25 93C279.41 72.7408 286.43 52.4816 293 32C284.731 51.9 276.905 71.8685 269.147 91.9054C269.069 91.9823 269 92.1277 269 92.1961Z" fill="#6a1b9a"/>
<path d="M205 97.2249C192.459 83.0345 179.834 68.9101 167 55C178.412 69.4708 190.033 83.8096 201.796 98L205 97.2249Z" fill="#6a1b9a"/>
<path d="M191 102.18C177.767 91.3314 164.456 80.6221 151 70C163.066 81.1453 175.278 92.1424 187.636 103L191 102.18Z" fill="#6a1b9a"/>
<path d="M218 95.2656C207.188 77.0792 196.317 58.9705 185 41C194.638 59.4802 204.636 77.8135 214.71 96L218 95.2656Z" fill="#6a1b9a"/>
<path d="M225.761 93L229 92.2757L228.775 91.6878C221.046 71.7237 213.248 51.7511 205 32C211.624 52.4072 218.619 72.5928 225.761 92.7785V93Z" fill="#6a1b9a"/>
<path d="M367.355 153C370.595 152.8 373.76 152.694 377 152.494C373.686 152.294 370.306 152.2 367 152C367.14 152.294 367.281 152.694 367.355 153Z" fill="#6a1b9a"/>
<path d="M366 133C369.363 132.029 372.646 130.958 376 130C372.646 130.643 369.363 131.286 366 132.029V133Z" fill="#6a1b9a"/>
<path d="M357.759 113C361.815 111.708 365.944 110.35 370 109C365.333 110.17 360.667 111.397 356 112.632L357.759 113Z" fill="#6a1b9a"/>
<path d="M370.075 174.375C372.075 174.559 374 174.809 376 175C374 174.684 372 174.309 370 174L370.075 174.375Z" fill="#6a1b9a"/>
<path d="M330.98 106C340.703 100.073 350.352 94.0699 360 88C349.286 93.6423 338.572 99.4271 328 105.287L330.98 106Z" fill="#6a1b9a"/>
<path d="M284.204 96C294.017 77.8112 303.688 59.4837 313 41C302.052 58.8939 291.455 76.9959 281 95.1847L284.204 96Z" fill="#6a1b9a"/>
<path d="M296.223 98C307.986 83.8131 319.598 69.477 331 55C318.092 68.9052 305.47 83.0341 293 97.2293L296.223 98Z" fill="#6a1b9a"/>
<path d="M311.304 102C323.298 91.4753 335.217 80.8143 347 70C333.851 80.2267 320.854 90.6067 308 101.2L311.304 102Z" fill="#6a1b9a"/>
<path d="M143 112.642C138.356 111.386 133.713 110.193 129 109C133.047 110.375 137.18 111.688 141.227 113L143 112.642Z" fill="#6a1b9a"/>
<path d="M164 166C150.308 168.901 136.616 171.803 123 175C136.616 173.021 150.165 170.961 163.706 168.669L164 166Z" fill="#6a1b9a"/>
<path d="M167 152.198L163.811 151C149.514 151.342 135.296 151.775 121 152.46C136.261 153.144 151.591 153.658 166.852 154L167 152.198Z" fill="#6a1b9a"/>
<path d="M243 341C211.725 306.557 165.887 292.849 140.879 287.723C130.214 285.522 123 279.149 123 271.891V248C123 248.069 221.383 278.556 243 341Z" fill="#6a1b9a"/>
<path d="M243 363C225.96 344.385 201.623 335.798 185.888 332.017C176.355 329.764 170 323.943 170 317.396V307C170 307 229.857 325.402 243 363Z" fill="#6a1b9a"/>
<mask id="mask0_1072_3" style="mask-type:luminance" maskUnits="userSpaceOnUse" x="114" y="189" width="130" height="128">
<path d="M114 189.815H243.956V316.064H114V189.815Z" fill="#6a1b9a"/>
</mask>
<g mask="url(#mask0_1072_3)">
<path d="M243.854 314.474C211.824 270.055 158.418 248.748 128.999 239.981L128.786 239.913C119.799 237.226 114 230.416 114 222.882V190.708C114 190.64 228.269 237.592 243.854 314.474Z" fill="#6a1b9a"/>
</g>
<path d="M376 248C376 248 277.605 278.509 256 341C287.257 306.532 333.07 292.813 358.14 287.684C368.798 285.481 376 279.103 376 271.84V248Z" fill="#6a1b9a"/>
<path d="M329 307C329 307 269.197 325.402 256 363C273.09 344.385 297.333 335.798 313.052 332.017C322.575 329.764 328.924 323.943 328.924 317.396V307H329Z" fill="#6a1b9a"/>
<mask id="mask1_1072_3" style="mask-type:luminance" maskUnits="userSpaceOnUse" x="254" y="189" width="131" height="128">
<path d="M254.84 189.815H385V316.064H254.84V189.815Z" fill="#6a1b9a"/>
</mask>
<g mask="url(#mask1_1072_3)">
<path d="M385 190.708V222.882C385 230.416 379.21 237.226 370.29 239.913L370.078 239.981C340.582 248.748 287.252 269.979 255.154 314.474C270.731 237.592 385 190.708 385 190.708Z" fill="#6a1b9a"/>
</g>
<mask id="mask2_1072_3" style="mask-type:luminance" maskUnits="userSpaceOnUse" x="246" y="13" width="6" height="70">
<path d="M246.745 13H251.6V82.4591H246.745V13Z" fill="#6a1b9a"/>
</mask>
<g mask="url(#mask2_1072_3)">
<path d="M251.022 81.8044V79.9168C250.665 57.6055 250.231 35.3538 249.287 13.0425C248.344 36.085 247.91 59.119 247.544 82.1615H251.022V81.8044Z" fill="#6a1b9a"/>
</g>
</svg>