<svg width="500" height="500" viewBox="0 0 500 500" fill="none" xmlns="http://www.w3.org/2000/svg">
<path d="M173.176 390.746C175.871 390.746 178.499 391.146 181.066 391.936C183.626 392.71 185.53 393.484 186.78 394.249L188.583 395.439L184.025 404.486C183.66 404.24 183.15 403.934 182.495 403.568C181.857 403.186 180.658 402.675 178.89 402.038C177.138 401.383 175.497 401.051 173.958 401.051C172.07 401.051 170.625 401.459 169.605 402.276C168.584 403.075 168.074 404.146 168.074 405.507C168.074 406.187 168.312 406.825 168.788 407.411C169.265 407.981 170.081 408.602 171.237 409.282C172.411 409.945 173.448 410.472 174.332 410.881C175.216 411.272 176.577 411.858 178.414 412.649C181.628 414.035 184.374 415.906 186.644 418.261C188.906 420.599 190.045 423.252 190.045 426.219C190.045 429.059 189.535 431.542 188.515 433.668C187.494 435.802 186.083 437.469 184.297 438.668C182.503 439.875 180.522 440.768 178.346 441.354C176.186 441.941 173.839 442.239 171.305 442.239C169.146 442.239 167.028 442.009 164.945 441.558C162.853 441.133 161.11 440.589 159.707 439.926C158.296 439.246 157.029 438.591 155.898 437.953C154.784 437.324 153.968 436.78 153.449 436.321L152.667 435.675L158.313 426.151C158.789 426.56 159.444 427.087 160.286 427.716C161.144 428.328 162.641 429.161 164.775 430.199C166.926 431.245 168.831 431.763 170.489 431.763C175.251 431.763 177.631 430.131 177.631 426.866C177.631 426.185 177.461 425.565 177.121 424.995C176.781 424.408 176.177 423.822 175.319 423.227C174.451 422.64 173.695 422.172 173.04 421.832C172.377 421.492 171.288 420.973 169.775 420.268C168.278 419.57 167.164 419.035 166.442 418.669C163.423 417.198 161.085 415.353 159.435 413.125C157.803 410.906 156.987 408.5 156.987 405.915C156.987 401.476 158.628 397.837 161.918 394.997C165.2 392.166 168.958 390.746 173.176 390.746Z" fill="#6a1b9a"/>
<path d="M242.227 391.664V423.669C242.227 429.774 240.577 434.399 237.295 437.545C234.005 440.674 229.184 442.239 222.841 442.239C216.515 442.239 211.702 440.674 208.42 437.545C205.129 434.399 203.488 429.774 203.488 423.669V391.664H214.78V420.37C214.78 424.383 215.409 427.172 216.685 428.736C217.952 430.301 220.001 431.083 222.841 431.083C225.698 431.083 227.755 430.301 229.031 428.736C230.298 427.172 230.935 424.383 230.935 420.37V391.664H242.227Z" fill="#6a1b9a"/>
<path d="M275.888 390.746C278.583 390.746 281.21 391.146 283.778 391.936C286.338 392.71 288.242 393.484 289.492 394.249L291.295 395.439L286.737 404.486C286.372 404.24 285.861 403.934 285.207 403.568C284.569 403.186 283.37 402.675 281.602 402.038C279.85 401.383 278.209 401.051 276.67 401.051C274.782 401.051 273.337 401.459 272.317 402.276C271.296 403.075 270.786 404.146 270.786 405.507C270.786 406.187 271.024 406.825 271.5 407.411C271.976 407.981 272.793 408.602 273.949 409.282C275.123 409.945 276.16 410.472 277.044 410.881C277.928 411.272 279.289 411.858 281.125 412.649C284.339 414.035 287.086 415.906 289.356 418.261C291.618 420.599 292.757 423.252 292.757 426.219C292.757 429.059 292.247 431.542 291.227 433.668C290.206 435.802 288.795 437.469 287.009 438.668C285.215 439.875 283.234 440.768 281.057 441.354C278.898 441.941 276.551 442.239 274.017 442.239C271.857 442.239 269.74 442.009 267.657 441.558C265.565 441.133 263.822 440.589 262.419 439.926C261.008 439.246 259.741 438.591 258.61 437.953C257.496 437.324 256.68 436.78 256.161 436.321L255.379 435.675L261.025 426.151C261.501 426.56 262.156 427.087 262.998 427.716C263.856 428.328 265.353 429.161 267.487 430.199C269.638 431.245 271.543 431.763 273.201 431.763C277.962 431.763 280.343 430.131 280.343 426.866C280.343 426.185 280.173 425.565 279.833 424.995C279.493 424.408 278.889 423.822 278.03 423.227C277.163 422.64 276.406 422.172 275.752 421.832C275.088 421.492 274 420.973 272.487 420.268C270.99 419.57 269.876 419.035 269.154 418.669C266.135 417.198 263.797 415.353 262.147 413.125C260.515 410.906 259.698 408.5 259.698 405.915C259.698 401.476 261.34 397.837 264.63 394.997C267.912 392.166 271.67 390.746 275.888 390.746Z" fill="#6a1b9a"/>
<path d="M301.371 391.664H314.975L325.314 407.547L335.688 391.664H349.292L330.994 419.043V441.32H319.668V419.043L301.371 391.664Z" fill="#6a1b9a"/>
<path d="M143.182 480.145H130.326L127.775 486.097H122.877L134.441 460.351H139.134L150.766 486.097H145.767L143.182 480.145ZM141.617 476.404L136.754 465.146L131.958 476.404H141.617Z" fill="#6a1b9a"/>
<path d="M175.365 486.471C172.755 486.471 170.399 485.91 168.291 484.771C166.199 483.614 164.567 482.041 163.393 480.043C162.211 478.028 161.625 475.758 161.625 473.241C161.625 470.707 162.22 468.437 163.427 466.439C164.626 464.424 166.267 462.851 168.359 461.711C170.442 460.555 172.789 459.977 175.399 459.977C177.508 459.977 179.421 460.351 181.147 461.099C182.89 461.83 184.361 462.893 185.568 464.296L182.507 467.187C180.62 465.197 178.324 464.194 175.603 464.194C173.852 464.194 172.279 464.585 170.876 465.35C169.464 466.124 168.367 467.204 167.577 468.581C166.803 469.942 166.42 471.498 166.42 473.241C166.42 474.967 166.803 476.523 167.577 477.9C168.367 479.261 169.464 480.341 170.876 481.131C172.279 481.905 173.852 482.288 175.603 482.288C178.324 482.288 180.62 481.268 182.507 479.227L185.568 482.152C184.361 483.563 182.89 484.635 181.147 485.383C179.395 486.106 177.474 486.471 175.365 486.471Z" fill="#6a1b9a"/>
<path d="M216.263 480.145H203.407L200.856 486.097H195.958L207.522 460.351H212.215L223.847 486.097H218.848L216.263 480.145ZM214.698 476.404L209.835 465.146L205.039 476.404H214.698Z" fill="#6a1b9a"/>
<path d="M236.542 460.351H247.766C250.504 460.351 252.944 460.887 255.078 461.949C257.229 463.021 258.887 464.526 260.044 466.473C261.217 468.428 261.812 470.682 261.812 473.241C261.812 475.783 261.217 478.028 260.044 479.975C258.887 481.931 257.229 483.436 255.078 484.499C252.944 485.57 250.504 486.097 247.766 486.097H236.542V460.351ZM247.562 482.05C249.441 482.05 251.099 481.693 252.527 480.962C253.973 480.239 255.087 479.21 255.86 477.867C256.626 476.532 257.017 474.993 257.017 473.241C257.017 471.472 256.626 469.925 255.86 468.582C255.087 467.247 253.973 466.218 252.527 465.486C251.099 464.764 249.441 464.398 247.562 464.398H241.304V482.05H247.562Z" fill="#6a1b9a"/>
<path d="M295.602 482.084V486.097H276.317V460.351H295.091V464.364H281.079V471.064H293.527V475.01H281.079V482.084H295.602Z" fill="#6a1b9a"/>
<path d="M333.996 486.097L333.962 469.024L325.493 483.172H323.35L314.916 469.262V486.097H310.358V460.351H314.27L324.507 477.424L334.54 460.351H338.485L338.519 486.097H333.996Z" fill="#6a1b9a"/>
<path d="M365.963 477.016V486.097H361.201V477.084L351.066 460.351H356.201L363.718 472.901L371.336 460.351H376.03L365.963 477.016Z" fill="#6a1b9a"/>
<path d="M361 132.001L250.12 168L129 128.64L250.197 100L357.223 125.287H264.946C262.474 122.354 256.804 120.283 250.273 120.283C241.406 120.283 234.21 123.997 234.21 128.64C234.21 133.216 241.406 136.996 250.273 136.996C256.804 136.996 262.474 134.926 264.946 132.001H361Z" fill="#6a1b9a"/>
<path d="M352.841 184.697L346.999 164.941C347.369 164.65 347.747 164.359 348.125 163.991C348.425 163.623 348.724 163.264 348.944 162.827C349.172 162.391 349.322 161.946 349.392 161.441C349.471 161.005 349.471 160.491 349.392 160.055C349.322 159.619 349.243 159.105 349.023 158.669C348.873 158.233 348.574 157.796 348.275 157.428C347.967 157.06 347.598 156.701 347.219 156.478C346.85 156.188 346.401 155.974 345.944 155.828V133L342.275 134.027V155.751C341.827 155.897 341.378 156.119 341 156.41C340.621 156.701 340.252 156.992 339.953 157.36C339.654 157.719 339.425 158.156 339.196 158.592C339.047 159.037 338.897 159.473 338.827 159.978C338.748 160.491 338.748 160.928 338.827 161.364C338.897 161.8 339.047 162.314 339.275 162.75C339.504 163.187 339.724 163.555 340.102 163.914C340.401 164.282 340.771 164.573 341.228 164.864L335.378 184.629C335.299 184.988 335.229 185.279 335.15 185.647C335.079 186.015 335.079 186.306 335 186.665C335 187.033 335 187.324 335 187.692C335 188.051 335.079 188.342 335.15 188.71C335.229 189.078 335.299 189.369 335.378 189.728C335.449 190.019 335.598 190.387 335.748 190.678C335.897 190.969 336.056 191.26 336.205 191.551C336.355 191.842 336.575 192.133 336.803 192.432C337.023 192.723 337.252 192.937 337.472 193.228C337.701 193.45 338 193.741 338.229 193.964C338.528 194.178 338.748 194.4 339.047 194.545C339.346 194.759 339.654 194.905 339.953 195.05C340.252 195.196 340.621 195.341 340.921 195.487C341.228 195.641 341.598 195.709 341.897 195.786C342.275 195.855 342.574 195.932 342.953 195.932C343.322 196 343.621 196 344 196C344.369 196 344.677 196 345.046 195.932C345.425 195.855 345.724 195.855 346.093 195.786C346.472 195.709 346.771 195.641 347.07 195.487C347.369 195.341 347.747 195.273 348.046 195.05C348.345 194.905 348.644 194.759 348.944 194.545C349.243 194.323 349.542 194.178 349.77 193.964C350.07 193.741 350.298 193.519 350.518 193.228C350.747 193.014 350.967 192.723 351.196 192.432C351.424 192.133 351.574 191.842 351.794 191.551C351.943 191.26 352.093 190.969 352.243 190.678C352.392 190.387 352.542 190.019 352.621 189.728C352.691 189.437 352.841 189.078 352.841 188.71C352.92 188.342 352.92 188.051 352.99 187.692C352.99 187.324 352.99 187.033 352.99 186.665C352.99 186.306 352.92 186.015 352.92 185.647C353.069 185.356 352.99 185.065 352.841 184.697Z" fill="#6a1b9a"/>
<path d="M327 198.232L250.153 251.562L249.573 252L172 198.232L175.634 168.026L177.528 152L250.076 176.137L321.472 152.438L325.251 183.897L327 198.232Z" fill="#6a1b9a"/>
<path d="M236.828 90L240 89.2694L239.853 88.6918C235.866 67.7011 231.654 46.7783 227 26C229.955 47.1436 233.283 68.2023 236.75 89.2015C236.75 89.4139 236.75 89.7027 236.828 90Z" fill="#6a1b9a"/>
<path d="M262.181 90C262.181 89.8549 262.25 89.6416 262.25 89.4965C265.725 68.331 269.045 47.2423 272 26C267.346 46.9436 263.134 67.8957 259.078 88.9844C259.078 89.0612 259 89.2063 259 89.2746L262.181 90Z" fill="#6a1b9a"/>
<path d="M171 107.218C160.071 100.711 148.997 94.277 138 88C147.919 94.7464 157.905 101.419 167.892 108L171 107.218Z" fill="#6a1b9a"/>
<path d="M269 92.1961L272.25 93C279.41 72.7408 286.43 52.4816 293 32C284.731 51.9 276.905 71.8685 269.147 91.9054C269.069 91.9823 269 92.1277 269 92.1961Z" fill="#6a1b9a"/>
<path d="M205 97.2249C192.459 83.0345 179.834 68.9101 167 55C178.412 69.4708 190.033 83.8096 201.796 98L205 97.2249Z" fill="#6a1b9a"/>
<path d="M191 102.18C177.767 91.3314 164.456 80.6221 151 70C163.066 81.1453 175.278 92.1424 187.636 103L191 102.18Z" fill="#6a1b9a"/>
<path d="M218 95.2656C207.188 77.0792 196.317 58.9705 185 41C194.638 59.4802 204.636 77.8135 214.71 96L218 95.2656Z" fill="#6a1b9a"/>
<path d="M225.761 93L229 92.2757L228.775 91.6878C221.046 71.7237 213.248 51.7511 205 32C211.624 52.4072 218.619 72.5928 225.761 92.7785V93Z" fill="#6a1b9a"/>
<path d="M367.355 153C370.595 152.8 373.76 152.694 377 152.494C373.686 152.294 370.306 152.2 367 152C367.14 152.294 367.281 152.694 367.355 153Z" fill="#6a1b9a"/>
<path d="M366 133C369.363 132.029 372.646 130.958 376 130C372.646 130.643 369.363 131.286 366 132.029V133Z" fill="#6a1b9a"/>
<path d="M357.759 113C361.815 111.708 365.944 110.35 370 109C365.333 110.17 360.667 111.397 356 112.632L357.759 113Z" fill="#6a1b9a"/>
<path d="M370.075 174.375C372.075 174.559 374 174.809 376 175C374 174.684 372 174.309 370 174L370.075 174.375Z" fill="#6a1b9a"/>
<path d="M330.98 106C340.703 100.073 350.352 94.0699 360 88C349.286 93.6423 338.572 99.4271 328 105.287L330.98 106Z" fill="#6a1b9a"/>
<path d="M284.204 96C294.017 77.8112 303.688 59.4837 313 41C302.052 58.8939 291.455 76.9959 281 95.1847L284.204 96Z" fill="#6a1b9a"/>
<path d="M296.223 98C307.986 83.8131 319.598 69.477 331 55C318.092 68.9052 305.47 83.0341 293 97.2293L296.223 98Z" fill="#6a1b9a"/>
<path d="M311.304 102C323.298 91.4753 335.217 80.8143 347 70C333.851 80.2267 320.854 90.6067 308 101.2L311.304 102Z" fill="#6a1b9a"/>
<path d="M143 112.642C138.356 111.386 133.713 110.193 129 109C133.047 110.375 137.18 111.688 141.227 113L143 112.642Z" fill="#6a1b9a"/>
<path d="M164 166C150.308 168.901 136.616 171.803 123 175C136.616 173.021 150.165 170.961 163.706 168.669L164 166Z" fill="#6a1b9a"/>
<path d="M167 152.198L163.811 151C149.514 151.342 135.296 151.775 121 152.46C136.261 153.144 151.591 153.658 166.852 154L167 152.198Z" fill="#6a1b9a"/>
<path d="M243 341C211.725 306.557 165.887 292.849 140.879 287.723C130.214 285.522 123 279.149 123 271.891V248C123 248.069 221.383 278.556 243 341Z" fill="#6a1b9a"/>
<path d="M243 363C225.96 344.385 201.623 335.798 185.888 332.017C176.355 329.764 170 323.943 170 317.396V307C170 307 229.857 325.402 243 363Z" fill="#6a1b9a"/>
<mask id="mask0_1072_3" style="mask-type:luminance" maskUnits="userSpaceOnUse" x="114" y="189" width="130" height="128">
<path d="M114 189.815H243.956V316.064H114V189.815Z" fill="#6a1b9a"/>
</mask>
<g mask="url(#mask0_1072_3)">
<path d="M243.854 314.474C211.824 270.055 158.418 248.748 128.999 239.981L128.786 239.913C119.799 237.226 114 230.416 114 222.882V190.708C114 190.64 228.269 237.592 243.854 314.474Z" fill="#6a1b9a"/>
</g>
<path d="M376 248C376 248 277.605 278.509 256 341C287.257 306.532 333.07 292.813 358.14 287.684C368.798 285.481 376 279.103 376 271.84V248Z" fill="#6a1b9a"/>
<path d="M329 307C329 307 269.197 325.402 256 363C273.09 344.385 297.333 335.798 313.052 332.017C322.575 329.764 328.924 323.943 328.924 317.396V307H329Z" fill="#6a1b9a"/>
<mask id="mask1_1072_3" style="mask-type:luminance" maskUnits="userSpaceOnUse" x="254" y="189" width="131" height="128">
<path d="M254.84 189.815H385V316.064H254.84V189.815Z" fill="#6a1b9a"/>
</mask>
<g mask="url(#mask1_1072_3)">
<path d="M385 190.708V222.882C385 230.416 379.21 237.226 370.29 239.913L370.078 239.981C340.582 248.748 287.252 269.979 255.154 314.474C270.731 237.592 385 190.708 385 190.708Z" fill="#6a1b9a"/>
</g>
<mask id="mask2_1072_3" style="mask-type:luminance" maskUnits="userSpaceOnUse" x="246" y="13" width="6" height="70">
<path d="M246.745 13H251.6V82.4591H246.745V13Z" fill="#6a1b9a"/>
</mask>
<g mask="url(#mask2_1072_3)">
<path d="M251.022 81.8044V79.9168C250.665 57.6055 250.231 35.3538 249.287 13.0425C248.344 36.085 247.91 59.119 247.544 82.1615H251.022V81.8044Z" fill="#6a1b9a"/>
</g>
<mask id="mask3_1072_3" style="mask-type:luminance" maskUnits="userSpaceOnUse" x="114" y="189" width="130" height="128">
<path d="M114 189.815H243.956V316.064H114V189.815Z" fill="#6a1b9a"/>
</mask>
<g mask="url(#mask3_1072_3)">
<path d="M243.854 314.474C212.037 238.247 136.609 219.183 114 215.128V190.64C114 190.64 228.269 237.592 243.854 314.474Z" fill="#6a1b9a" fill-opacity="0.2"/>
</g>
<path d="M243 341C209.579 280.196 144.824 267.803 123 265.307V248C123 248 221.395 278.509 243 341Z" fill="#6a1b9a" fill-opacity="0.2"/>
<path d="M243 363C225.527 331.795 187.549 320.016 170 316.09V307C170 307 229.857 325.402 243 363Z" fill="#6a1b9a" fill-opacity="0.2"/>
<mask id="mask4_1072_3" style="mask-type:luminance" maskUnits="userSpaceOnUse" x="254" y="189" width="131" height="128">
<path d="M254.84 189.815H385V316.064H254.84V189.815Z" fill="#6a1b9a"/>
</mask>
<g mask="url(#mask4_1072_3)">
<path d="M255.154 314.474C286.963 238.247 362.391 219.183 385 215.128V190.64C385 190.64 270.731 237.592 255.154 314.474Z" fill="#6a1b9a" fill-opacity="0.2"/>
</g>
<path d="M256 341C289.419 280.196 354.169 267.803 376 265.307V248C376 248 277.611 278.509 256 341Z" fill="#6a1b9a" fill-opacity="0.2"/>
<path d="M256 363C273.454 331.795 311.402 320.016 329 316.09V307C328.932 307 269.129 325.402 256 363Z" fill="#6a1b9a" fill-opacity="0.2"/>
<path d="M233.895 128.643C233.895 133.212 241.079 137.001 249.923 137.001V168L129 128.643L250 100V120.286C241.079 120.286 233.895 124 233.895 128.643Z" fill="#6a1b9a" fill-opacity="0.2"/>
<path d="M177.523 152L250 176.121V251.563L249.42 252L172 198.2L175.631 168.015L177.523 152Z" fill="#6a1b9a" fill-opacity="0.2"/>
</svg>
