<svg width="129" height="145" viewBox="0 0 129 145" fill="none" xmlns="http://www.w3.org/2000/svg">
<path d="M49.9744 57.5753V51.9638C48.0265 51.6554 46.0591 51.4864 44.0871 51.4582C24.9956 51.4174 8.09347 63.7893 2.36029 81.9995C-3.37289 100.21 3.39446 120.033 19.065 130.936C13.3186 124.786 9.47501 117.104 7.99821 108.818C6.52141 100.532 7.47453 91.9952 10.7425 84.2386C14.0105 76.482 19.4537 69.8371 26.415 65.1059C33.3763 60.3747 41.5582 57.7595 49.9731 57.576L49.9744 57.5753Z" fill="#25F4EE"/>
<path d="M51.0328 121.139C61.7069 121.125 70.4809 112.716 70.9483 102.052V6.88974H88.3332C87.9784 4.90124 87.8091 2.88408 87.8275 0.864258H64.0485V95.9347C63.653 106.652 54.8581 115.142 44.133 115.16C40.9279 115.132 37.7751 114.344 34.9343 112.86C36.7755 115.411 39.1935 117.491 41.9911 118.929C44.7888 120.368 47.8869 121.125 51.0328 121.139ZM120.806 39.1772V33.8879C114.408 33.8904 108.151 32.0024 102.822 28.461C107.494 33.8917 113.806 37.6534 120.806 39.1772Z" fill="#25F4EE"/>
<path d="M102.822 28.461C97.5721 22.4834 94.6783 14.7989 94.6809 6.84326H88.3332C89.153 11.2419 90.8606 15.4272 93.3516 19.144C95.8427 22.8607 99.065 26.0309 102.822 28.461ZM44.0871 75.2371C39.6352 75.2598 35.3186 76.77 31.8236 79.5278C28.3286 82.2856 25.8559 86.1325 24.7985 90.4571C23.7411 94.7817 24.1597 99.3357 25.9878 103.395C27.8159 107.454 30.9486 110.786 34.8878 112.86C32.734 109.886 31.4443 106.375 31.161 102.714C30.8778 99.0539 31.612 95.3861 33.2826 92.1164C34.9532 88.8468 37.4951 86.1026 40.6276 84.187C43.76 82.2715 47.3611 81.2592 51.0328 81.262C53.0289 81.2881 55.0111 81.5988 56.9194 82.1847V57.9892C54.9705 57.697 53.0034 57.5434 51.0328 57.5294H49.9744V75.9268C48.0559 75.4122 46.0726 75.1799 44.0871 75.2371Z" fill="#FE2C55"/>
<path d="M120.805 39.1772V57.5752C108.96 57.5521 97.4231 53.8028 87.8275 46.8583V95.1984C87.7766 119.319 68.2081 138.847 44.0871 138.847C35.1287 138.863 26.386 136.099 19.065 130.936C25.0348 137.357 32.7999 141.831 41.3489 143.776C49.8979 145.721 58.8344 145.047 66.9946 141.84C75.1547 138.634 82.1602 133.045 87.0984 125.8C92.0367 118.556 94.6789 109.992 94.6809 101.225V53.022C104.309 59.9207 115.86 63.6211 127.704 63.6007V39.9114C125.385 39.9045 123.073 39.6585 120.805 39.1772Z" fill="#FE2C55"/>
<path d="M87.8275 95.1985V46.8584C97.4522 53.7634 109.006 57.4644 120.852 57.4371V39.0397C113.854 37.5618 107.526 33.849 102.822 28.461C99.0649 26.0309 95.8427 22.8607 93.3516 19.144C90.8606 15.4272 89.153 11.2419 88.3332 6.84326H70.9483V102.053C70.779 106.197 69.323 110.186 66.7825 113.464C64.242 116.743 60.7433 119.149 56.7725 120.348C52.8017 121.546 48.5561 121.479 44.6258 120.153C40.6954 118.828 37.2755 116.311 34.8413 112.953C30.9014 110.879 27.7681 107.547 25.9395 103.488C24.1109 99.4284 23.6921 94.874 24.7495 90.549C25.807 86.224 28.2801 82.3766 31.7756 79.6188C35.2711 76.861 39.5883 75.3509 44.0406 75.3288C46.0374 75.3467 48.0209 75.6567 49.9279 76.249V57.851C41.4678 57.9945 33.2321 60.5964 26.2252 65.3395C19.2182 70.0826 13.7426 76.7619 10.4661 84.5632C7.18965 92.3644 6.25374 100.95 7.77256 109.274C9.29137 117.598 13.1993 125.3 19.0198 131.441C26.4127 136.434 35.1678 139.021 44.0871 138.847C68.2081 138.847 87.7766 119.319 87.8275 95.1985Z" fill="black"/>
</svg>
