<svg xmlns="http://www.w3.org/2000/svg" xmlns:xlink="http://www.w3.org/1999/xlink" width="500" zoomAndPan="magnify" viewBox="77.5 47 220 220" height="500" preserveAspectRatio="xMidYMid meet" version="1.2">
  <defs>
    <clipPath id="aa25bb0771">
      <path d="M 125.296875 158 L 185 158 L 185 216 L 125.296875 216 Z M 125.296875 158 "/>
    </clipPath>
    <clipPath id="07f553562f">
      <path d="M 190 158 L 249.796875 158 L 249.796875 216 L 190 216 Z M 190 158 "/>
    </clipPath>
    <clipPath id="40e8b8d23e">
      <path d="M 186.28125 76.769531 L 188.511719 76.769531 L 188.511719 108.679688 L 186.28125 108.679688 Z M 186.28125 76.769531 "/>
    </clipPath>
    <clipPath id="6443a8cb65">
      <path d="M 125.296875 158 L 185 158 L 185 216 L 125.296875 216 Z M 125.296875 158 "/>
    </clipPath>
    <clipPath id="e2d7527b37">
      <path d="M 190 158 L 249.796875 158 L 249.796875 216 L 190 216 Z M 190 158 "/>
    </clipPath>
  </defs>
  <circle cx="187.5" cy="157" r="110" fill="black" />
  <g id="8eab224e93"><path style=" stroke:none;fill-rule:nonzero;fill:#ffffff;fill-opacity:1;" d="M 238.613281 131.214844 L 187.8125 147.992188 L 132.320312 129.648438 L 187.847656 116.300781 L 236.882812 128.085938 L 194.605469 128.085938 C 193.472656 126.71875 190.875 125.753906 187.882812 125.753906 C 183.820312 125.753906 180.523438 127.484375 180.523438 129.648438 C 180.523438 131.78125 183.820312 133.542969 187.882812 133.542969 C 190.875 133.542969 193.472656 132.578125 194.605469 131.214844 Z M 238.613281 131.214844 "/><path style=" stroke:none;fill-rule:nonzero;fill:#ffffff;fill-opacity:1;" d="M 234.816406 155.28125 L 232.222656 146.261719 C 232.386719 146.128906 232.554688 145.996094 232.722656 145.828125 C 232.855469 145.660156 232.988281 145.496094 233.085938 145.296875 C 233.1875 145.097656 233.253906 144.894531 233.285156 144.664062 C 233.320312 144.464844 233.320312 144.230469 233.285156 144.03125 C 233.253906 143.832031 233.21875 143.597656 233.121094 143.398438 C 233.054688 143.199219 232.921875 143 232.789062 142.832031 C 232.652344 142.664062 232.488281 142.5 232.320312 142.398438 C 232.15625 142.265625 231.957031 142.167969 231.753906 142.101562 L 231.753906 131.679688 L 230.125 132.148438 L 230.125 142.066406 C 229.925781 142.132812 229.726562 142.234375 229.558594 142.367188 C 229.390625 142.5 229.226562 142.632812 229.09375 142.800781 C 228.960938 142.964844 228.859375 143.164062 228.757812 143.363281 C 228.691406 143.566406 228.625 143.765625 228.59375 143.996094 C 228.558594 144.230469 228.558594 144.429688 228.59375 144.628906 C 228.625 144.828125 228.691406 145.0625 228.792969 145.261719 C 228.894531 145.460938 228.992188 145.628906 229.160156 145.792969 C 229.292969 145.960938 229.457031 146.09375 229.660156 146.226562 L 227.0625 155.25 C 227.027344 155.414062 226.996094 155.546875 226.960938 155.714844 C 226.929688 155.882812 226.929688 156.015625 226.894531 156.179688 C 226.894531 156.347656 226.894531 156.480469 226.894531 156.648438 C 226.894531 156.8125 226.929688 156.945312 226.960938 157.113281 C 226.996094 157.28125 227.027344 157.414062 227.0625 157.578125 C 227.09375 157.710938 227.160156 157.878906 227.226562 158.011719 C 227.292969 158.144531 227.363281 158.277344 227.429688 158.410156 C 227.496094 158.542969 227.59375 158.675781 227.695312 158.8125 C 227.792969 158.945312 227.894531 159.042969 227.992188 159.175781 C 228.09375 159.277344 228.226562 159.410156 228.328125 159.511719 C 228.460938 159.609375 228.558594 159.710938 228.691406 159.777344 C 228.824219 159.875 228.960938 159.941406 229.09375 160.007812 C 229.226562 160.074219 229.390625 160.140625 229.523438 160.207031 C 229.660156 160.277344 229.824219 160.308594 229.957031 160.34375 C 230.125 160.375 230.257812 160.410156 230.425781 160.410156 C 230.589844 160.441406 230.722656 160.441406 230.890625 160.441406 C 231.054688 160.441406 231.191406 160.441406 231.355469 160.410156 C 231.523438 160.375 231.65625 160.375 231.820312 160.34375 C 231.988281 160.308594 232.121094 160.277344 232.253906 160.207031 C 232.386719 160.140625 232.554688 160.109375 232.6875 160.007812 C 232.820312 159.941406 232.953125 159.875 233.085938 159.777344 C 233.21875 159.675781 233.351562 159.609375 233.453125 159.511719 C 233.585938 159.410156 233.6875 159.308594 233.785156 159.175781 C 233.886719 159.078125 233.984375 158.945312 234.085938 158.8125 C 234.1875 158.675781 234.253906 158.542969 234.351562 158.410156 C 234.417969 158.277344 234.484375 158.144531 234.550781 158.011719 C 234.617188 157.878906 234.683594 157.710938 234.71875 157.578125 C 234.75 157.445312 234.816406 157.28125 234.816406 157.113281 C 234.851562 156.945312 234.851562 156.8125 234.882812 156.648438 C 234.882812 156.480469 234.882812 156.347656 234.882812 156.179688 C 234.882812 156.015625 234.851562 155.882812 234.851562 155.714844 C 234.917969 155.582031 234.882812 155.449219 234.816406 155.28125 Z M 234.816406 155.28125 "/><path style=" stroke:none;fill-rule:nonzero;fill:#ffffff;fill-opacity:1;" d="M 223.035156 161.90625 L 187.847656 186.175781 L 187.582031 186.375 L 152.0625 161.90625 L 153.726562 148.160156 L 154.59375 140.867188 L 187.8125 151.851562 L 220.503906 141.066406 L 222.234375 155.382812 Z M 223.035156 161.90625 "/><path style=" stroke:none;fill-rule:nonzero;fill:#ffffff;fill-opacity:1;" d="M 181.65625 112.441406 L 183.085938 112.105469 L 183.019531 111.839844 C 181.222656 102.1875 179.324219 92.566406 177.226562 83.011719 C 178.558594 92.734375 180.058594 102.417969 181.621094 112.074219 C 181.621094 112.171875 181.621094 112.304688 181.65625 112.441406 Z M 181.65625 112.441406 "/><path style=" stroke:none;fill-rule:nonzero;fill:#ffffff;fill-opacity:1;" d="M 193.242188 112.304688 C 193.242188 112.238281 193.273438 112.140625 193.273438 112.074219 C 194.839844 102.386719 196.335938 92.734375 197.667969 83.011719 C 195.570312 92.597656 193.671875 102.1875 191.84375 111.839844 C 191.84375 111.875 191.808594 111.941406 191.808594 111.972656 Z M 193.242188 112.304688 "/><path style=" stroke:none;fill-rule:nonzero;fill:#ffffff;fill-opacity:1;" d="M 151.628906 119.628906 C 146.601562 116.867188 141.507812 114.136719 136.449219 111.472656 C 141.011719 114.335938 145.605469 117.167969 150.199219 119.960938 Z M 151.628906 119.628906 "/><path style=" stroke:none;fill-rule:nonzero;fill:#ffffff;fill-opacity:1;" d="M 196.769531 113.136719 L 198.234375 113.503906 C 201.460938 104.25 204.625 94.996094 207.585938 85.640625 C 203.859375 94.730469 200.332031 103.851562 196.835938 113.003906 C 196.800781 113.039062 196.769531 113.105469 196.769531 113.136719 Z M 196.769531 113.136719 "/><path style=" stroke:none;fill-rule:nonzero;fill:#ffffff;fill-opacity:1;" d="M 167.339844 115.867188 C 161.484375 109.144531 155.589844 102.453125 149.597656 95.863281 C 154.925781 102.71875 160.351562 109.511719 165.84375 116.234375 Z M 167.339844 115.867188 "/><path style=" stroke:none;fill-rule:nonzero;fill:#ffffff;fill-opacity:1;" d="M 160.515625 117.5 C 154.492188 112.640625 148.433594 107.84375 142.308594 103.085938 C 147.800781 108.078125 153.359375 113.003906 158.984375 117.867188 Z M 160.515625 117.5 "/><path style=" stroke:none;fill-rule:nonzero;fill:#ffffff;fill-opacity:1;" d="M 173.035156 114.503906 C 168.105469 106.28125 163.148438 98.09375 157.988281 89.96875 C 162.382812 98.324219 166.941406 106.613281 171.535156 114.835938 Z M 173.035156 114.503906 "/><path style=" stroke:none;fill-rule:nonzero;fill:#ffffff;fill-opacity:1;" d="M 176.730469 113.605469 L 178.195312 113.273438 L 178.09375 113.003906 C 174.597656 103.851562 171.070312 94.695312 167.339844 85.640625 C 170.335938 94.996094 173.5 104.25 176.730469 113.503906 Z M 176.730469 113.605469 "/><path style=" stroke:none;fill-rule:nonzero;fill:#ffffff;fill-opacity:1;" d="M 241.777344 141.035156 C 243.308594 140.96875 244.804688 140.933594 246.335938 140.867188 C 244.769531 140.800781 243.171875 140.769531 241.609375 140.703125 C 241.675781 140.800781 241.742188 140.933594 241.777344 141.035156 Z M 241.777344 141.035156 "/><path style=" stroke:none;fill-rule:nonzero;fill:#ffffff;fill-opacity:1;" d="M 241.007812 131.613281 C 242.507812 131.3125 243.972656 130.980469 245.46875 130.683594 C 243.972656 130.882812 242.507812 131.082031 241.007812 131.3125 Z M 241.007812 131.613281 "/><path style=" stroke:none;fill-rule:nonzero;fill:#ffffff;fill-opacity:1;" d="M 237.480469 122.925781 C 239.246094 122.226562 241.042969 121.492188 242.808594 120.761719 C 240.777344 121.394531 238.746094 122.058594 236.714844 122.726562 Z M 237.480469 122.925781 "/><path style=" stroke:none;fill-rule:nonzero;fill:#ffffff;fill-opacity:1;" d="M 242.972656 150.722656 C 243.804688 150.820312 244.605469 150.953125 245.4375 151.054688 C 244.605469 150.886719 243.773438 150.6875 242.941406 150.523438 Z M 242.972656 150.722656 "/><path style=" stroke:none;fill-rule:nonzero;fill:#ffffff;fill-opacity:1;" d="M 224.863281 119.894531 C 229.425781 117.132812 233.953125 114.335938 238.480469 111.507812 C 233.453125 114.136719 228.425781 116.832031 223.464844 119.5625 Z M 224.863281 119.894531 "/><path style=" stroke:none;fill-rule:nonzero;fill:#ffffff;fill-opacity:1;" d="M 203.394531 114.738281 C 207.988281 106.546875 212.515625 98.292969 216.875 89.96875 C 211.75 98.027344 206.789062 106.179688 201.894531 114.371094 Z M 203.394531 114.738281 "/><path style=" stroke:none;fill-rule:nonzero;fill:#ffffff;fill-opacity:1;" d="M 209.152344 116.132812 C 214.613281 109.445312 220.003906 102.6875 225.296875 95.863281 C 219.304688 102.417969 213.445312 109.078125 207.65625 115.769531 Z M 209.152344 116.132812 "/><path style=" stroke:none;fill-rule:nonzero;fill:#ffffff;fill-opacity:1;" d="M 216.011719 117.765625 C 221.570312 112.9375 227.09375 108.046875 232.554688 103.085938 C 226.460938 107.777344 220.4375 112.539062 214.480469 117.398438 Z M 216.011719 117.765625 "/><path style=" stroke:none;fill-rule:nonzero;fill:#ffffff;fill-opacity:1;" d="M 138.414062 122.824219 C 136.316406 122.125 134.21875 121.460938 132.089844 120.796875 C 133.917969 121.5625 135.785156 122.292969 137.613281 123.023438 Z M 138.414062 122.824219 "/><path style=" stroke:none;fill-rule:nonzero;fill:#ffffff;fill-opacity:1;" d="M 148.46875 147.160156 C 142.109375 148.425781 135.75 149.691406 129.425781 151.085938 C 135.75 150.222656 142.042969 149.324219 148.332031 148.324219 Z M 148.46875 147.160156 "/><path style=" stroke:none;fill-rule:nonzero;fill:#ffffff;fill-opacity:1;" d="M 149.234375 140.800781 L 147.800781 140.335938 C 141.375 140.46875 134.984375 140.636719 128.558594 140.902344 C 135.417969 141.167969 142.308594 141.367188 149.167969 141.5 Z M 149.234375 140.800781 "/><path style=" stroke:none;fill-rule:nonzero;fill:#ffffff;fill-opacity:1;" d="M 184.816406 227.21875 C 170.371094 211.574219 149.199219 205.347656 137.648438 203.019531 C 132.722656 202.019531 129.390625 199.125 129.390625 195.828125 L 129.390625 184.976562 C 129.390625 185.007812 174.832031 198.855469 184.816406 227.21875 Z M 184.816406 227.21875 "/><path style=" stroke:none;fill-rule:nonzero;fill:#ffffff;fill-opacity:1;" d="M 184.816406 237.503906 C 176.960938 228.984375 165.742188 225.054688 158.488281 223.324219 C 154.09375 222.292969 151.164062 219.628906 151.164062 216.632812 L 151.164062 211.875 C 151.164062 211.875 178.757812 220.296875 184.816406 237.503906 Z M 184.816406 237.503906 "/><g clip-rule="nonzero" clip-path="url(#aa25bb0771)"><path style=" stroke:none;fill-rule:nonzero;fill:#ffffff;fill-opacity:1;" d="M 184.953125 215.269531 C 170.238281 194.863281 145.703125 185.074219 132.1875 181.046875 L 132.089844 181.015625 C 127.960938 179.78125 125.296875 176.652344 125.296875 173.191406 L 125.296875 158.410156 C 125.296875 158.378906 177.792969 179.949219 184.953125 215.269531 Z M 184.953125 215.269531 "/></g><path style=" stroke:none;fill-rule:nonzero;fill:#ffffff;fill-opacity:1;" d="M 245.703125 185.007812 C 245.703125 185.007812 200.230469 198.855469 190.246094 227.21875 C 204.691406 211.574219 225.863281 205.347656 237.449219 203.019531 C 242.375 202.019531 245.703125 199.125 245.703125 195.828125 Z M 245.703125 185.007812 "/><path style=" stroke:none;fill-rule:nonzero;fill:#ffffff;fill-opacity:1;" d="M 223.933594 211.875 C 223.933594 211.875 196.335938 220.296875 190.246094 237.503906 C 198.132812 228.984375 209.320312 225.054688 216.574219 223.324219 C 220.96875 222.292969 223.898438 219.628906 223.898438 216.632812 L 223.898438 211.875 Z M 223.933594 211.875 "/><g clip-rule="nonzero" clip-path="url(#07f553562f)"><path style=" stroke:none;fill-rule:nonzero;fill:#ffffff;fill-opacity:1;" d="M 249.796875 158.410156 L 249.796875 173.191406 C 249.796875 176.652344 247.136719 179.78125 243.039062 181.015625 L 242.941406 181.046875 C 229.390625 185.074219 204.890625 194.828125 190.144531 215.269531 C 197.300781 179.949219 249.796875 158.410156 249.796875 158.410156 Z M 249.796875 158.410156 "/></g><g clip-rule="nonzero" clip-path="url(#40e8b8d23e)"><path style=" stroke:none;fill-rule:nonzero;fill:#ffffff;fill-opacity:1;" d="M 188.246094 108.378906 L 188.246094 107.511719 C 188.082031 97.261719 187.882812 87.039062 187.449219 76.789062 C 187.015625 87.375 186.816406 97.957031 186.648438 108.542969 L 188.246094 108.542969 Z M 188.246094 108.378906 "/></g><g clip-rule="nonzero" clip-path="url(#6443a8cb65)"><path style=" stroke:none;fill-rule:nonzero;fill:#ffffff;fill-opacity:0.2;" d="M 184.953125 215.269531 C 170.335938 180.25 135.683594 171.492188 125.296875 169.628906 L 125.296875 158.378906 C 125.296875 158.378906 177.792969 179.949219 184.953125 215.269531 Z M 184.953125 215.269531 "/></g><path style=" stroke:none;fill-rule:nonzero;fill:#ffffff;fill-opacity:0.2;" d="M 184.816406 227.21875 C 169.371094 199.621094 139.445312 193.996094 129.359375 192.863281 L 129.359375 185.007812 C 129.359375 185.007812 174.832031 198.855469 184.816406 227.21875 Z M 184.816406 227.21875 "/><path style=" stroke:none;fill-rule:nonzero;fill:#ffffff;fill-opacity:0.2;" d="M 184.816406 237.503906 C 176.761719 223.222656 159.253906 217.832031 151.164062 216.035156 L 151.164062 211.875 C 151.164062 211.875 178.757812 220.296875 184.816406 237.503906 Z M 184.816406 237.503906 "/><g clip-rule="nonzero" clip-path="url(#e2d7527b37)"><path style=" stroke:none;fill-rule:nonzero;fill:#ffffff;fill-opacity:0.2;" d="M 190.144531 215.269531 C 204.757812 180.25 239.410156 171.492188 249.796875 169.628906 L 249.796875 158.378906 C 249.796875 158.378906 197.300781 179.949219 190.144531 215.269531 Z M 190.144531 215.269531 "/></g><path style=" stroke:none;fill-rule:nonzero;fill:#ffffff;fill-opacity:0.2;" d="M 190.277344 227.21875 C 205.722656 199.621094 235.648438 193.996094 245.738281 192.863281 L 245.738281 185.007812 C 245.738281 185.007812 200.265625 198.855469 190.277344 227.21875 Z M 190.277344 227.21875 "/><path style=" stroke:none;fill-rule:nonzero;fill:#ffffff;fill-opacity:0.2;" d="M 190.277344 237.503906 C 198.332031 223.222656 215.84375 217.832031 223.964844 216.035156 L 223.964844 211.875 C 223.933594 211.875 196.335938 220.296875 190.277344 237.503906 Z M 190.277344 237.503906 "/><path style=" stroke:none;fill-rule:nonzero;fill:#ffffff;fill-opacity:0.2;" d="M 180.457031 129.683594 C 180.457031 131.8125 183.753906 133.578125 187.8125 133.578125 L 187.8125 148.023438 L 132.320312 129.683594 L 187.847656 116.335938 L 187.847656 125.789062 C 183.753906 125.789062 180.457031 127.519531 180.457031 129.683594 Z M 180.457031 129.683594 "/><path style=" stroke:none;fill-rule:nonzero;fill:#ffffff;fill-opacity:0.2;" d="M 154.59375 140.867188 L 187.8125 151.851562 L 187.8125 186.207031 L 187.546875 186.40625 L 152.0625 161.90625 L 153.726562 148.160156 Z M 154.59375 140.867188 "/></g></svg>